<svg xmlns:inkscape="http://www.inkscape.org/namespaces/inkscape" xmlns:sodipodi="http://sodipodi.sourceforge.net/DTD/sodipodi-0.dtd" xmlns="http://www.w3.org/2000/svg" xmlns:svg="http://www.w3.org/2000/svg" viewBox="0 0 6.3499999 7.937500125" version="1.1" x="0px" y="0px"><g><path style="color:#6c3e77;" d="m 3.1762897,0.2638075 c -1.604244,0 -2.91248398,1.30824 -2.91248398,2.912484 0,1.604244 1.30823998,2.909901 2.91248398,2.909901 1.604243,0 2.9099,-1.305657 2.9099,-2.909901 a 0.26458349,0.26458349 0 0 0 -0.265617,-0.266134 0.26458349,0.26458349 0 0 0 -0.26355,0.266134 c 0,1.31826 -1.062473,2.380734 -2.380733,2.380734 -1.318261,0 -2.38331698,-1.062473 -2.38331698,-2.380734 0,-1.318261 1.06505598,-2.383317 2.38331698,-2.383317 a 0.26458349,0.26458349 0 0 0 0.26355,-0.26355 0.26458349,0.26458349 0 0 0 -0.26355,-0.265617 z m 1.004073,0.198954 c -0.103283,0.001 -0.200816,0.06268 -0.242363,0.164331 -0.05577,0.135376 0.0086,0.290321 0.144178,0.345716 0.0031,0.0013 0.0051,0.003 0.0077,0.0041 0.135372,0.0573 0.291626,-0.0068 0.347782,-0.142627 0.056,-0.134835 -0.0079,-0.289556 -0.142627,-0.345716 -0.0038,-0.0016 -0.008,-0.0043 -0.01137,-0.0057 -0.03384,-0.01394 -0.06892,-0.0205 -0.103353,-0.02015 z m 0.860929,0.572575 c -0.06973,5.75e-4 -0.13638,0.02856 -0.185518,0.07803 -0.103876,0.10342 -0.103876,0.271752 0,0.375171 0.0022,0.0022 0.0035,0.0035 0.0057,0.0057 0.102879,0.104416 0.271212,0.105407 0.375171,0.0021 0.103876,-0.103419 0.103876,-0.271751 0,-0.375171 -0.0027,-0.0027 -0.005,-0.0051 -0.0077,-0.0077 -0.04961,-0.04995 -0.117177,-0.07797 -0.187583,-0.07803 z m -1.865002,0.287321 a 0.26458336,0.26458336 0 0 0 -0.266134,0.265617 v 1.588017 a 0.26460981,0.26460981 0 0 0 0.146761,0.236161 l 1.058334,0.529167 a 0.26458336,0.26458336 0 0 0 0.355533,-0.118856 0.26458336,0.26458336 0 0 0 -0.118855,-0.355534 l -0.912089,-0.455269 v -1.423686 a 0.26458336,0.26458336 0 0 0 -0.26355,-0.265617 z m 2.443262,0.568958 c -0.03464,-2.01e-4 -0.06989,0.0064 -0.10387,0.02067 -0.135851,0.05616 -0.19993,0.212411 -0.142627,0.347782 0.0013,0.0032 0.003,0.005 0.0041,0.0077 0.05539,0.135529 0.210341,0.200465 0.345716,0.144694 0.13553,-0.05539 0.200467,-0.21034 0.144694,-0.345715 -0.0015,-0.0036 -0.0028,-0.0066 -0.0041,-0.0098 -0.04154,-0.102456 -0.140005,-0.16476 -0.243913,-0.165362 z" fill="#6c3e77" stroke-linecap="round" stroke-linejoin="round"/></g><text x="0" y="21.3500001" fill="#000000" font-size="5px" font-weight="bold" font-family="'Helvetica Neue', Helvetica, Arial-Unicode, Arial, Sans-serif">Created by Muh Fahmi</text><text x="0" y="26.3500001" fill="#6c3e77" font-size="5px" font-weight="bold" font-family="'Helvetica Neue', Helvetica, Arial-Unicode, Arial, Sans-serif">from the Noun Project</text></svg>